<?xml version="1.0" ?><svg data-name="Layer 1" id="Layer_1" viewBox="0 0 512 512" xmlns="http://www.w3.org/2000/svg"><path d="M235.49,227.84a31.2,31.2,0,1,0,31.2,31.2A31.24,31.24,0,0,0,235.49,227.84Zm0,52.36A21.16,21.16,0,1,1,256.65,259,21.18,21.18,0,0,1,235.49,280.2Z"/><path d="M306.29,242h-20.7a51.92,51.92,0,0,0-2.52-6.13l14.62-14.62a5,5,0,0,0,0-7.1l-17.18-17.17a5,5,0,0,0-7.1,0l-14.59,14.58a52,52,0,0,0-6.17-2.56V188.35a5,5,0,0,0-5-5H223.34a5,5,0,0,0-5,5V209a51.27,51.27,0,0,0-6.18,2.57L197.57,197a5,5,0,0,0-7.1,0L173.3,214.14a5,5,0,0,0,0,7.1l14.6,14.6a51.72,51.72,0,0,0-2.53,6.16H164.72a5,5,0,0,0-5,5v24.29a5,5,0,0,0,5,5h20.73a50.77,50.77,0,0,0,2.54,6.09l-14.66,14.67a5,5,0,0,0,0,7.1l17.17,17.17a5.17,5.17,0,0,0,7.1,0l14.71-14.71a53.21,53.21,0,0,0,6,2.49v20.8a5,5,0,0,0,5,5h24.28a5,5,0,0,0,5-5V309.1a50.45,50.45,0,0,0,6-2.49l14.71,14.71a5,5,0,0,0,7.1,0l17.18-17.17a5,5,0,0,0,0-7.1L283,282.35a51.61,51.61,0,0,0,2.52-6.06h20.76a5,5,0,0,0,5-5V247A5,5,0,0,0,306.29,242Zm-5,24.29H281.81A5,5,0,0,0,277,270a42.57,42.57,0,0,1-4.46,10.74,5,5,0,0,0,.79,6.09l13.77,13.78L277,310.67l-13.79-13.79a5,5,0,0,0-6.09-.79,42.2,42.2,0,0,1-10.71,4.43,5,5,0,0,0-3.75,4.86v19.53H228.4V305.4a5,5,0,0,0-3.75-4.86,42.72,42.72,0,0,1-10.74-4.42,5,5,0,0,0-6.08.79L194.05,310.7,184,300.63l13.75-13.76a5,5,0,0,0,.78-6.1A42.18,42.18,0,0,1,194,270a5,5,0,0,0-4.86-3.75H169.74V252h19.37a5,5,0,0,0,4.86-3.76,42.55,42.55,0,0,1,4.45-10.83,5,5,0,0,0-.79-6.08L184,217.69,194,207.62l13.66,13.65a5,5,0,0,0,6.09.78,42.69,42.69,0,0,1,10.84-4.5,5,5,0,0,0,3.76-4.86V193.38h14.24v19.31a5,5,0,0,0,3.75,4.86A42.5,42.5,0,0,1,257.18,222a5,5,0,0,0,6.1-.78L277,207.59,287,217.66l-13.7,13.7a5,5,0,0,0-.78,6.09A42.56,42.56,0,0,1,277,248.24a5,5,0,0,0,4.86,3.76h19.41Z"/><path d="M448.91,239.89H417.43a5,5,0,0,0-5,5v45.63h-24V265.42a28.84,28.84,0,0,0-28.8-28.79H335.25V177.7a28.82,28.82,0,0,0-28.79-28.79H240.53V127.06h45.63a5,5,0,0,0,5-5V90.56a5,5,0,0,0-5-5H184.85a5,5,0,0,0-5,5V122a5,5,0,0,0,5,5h45.63v21.85H151.59a28.84,28.84,0,0,0-28.8,28.79V280.2H99.59V234.57a5,5,0,0,0-5-5H63.09a5,5,0,0,0-5,5V335.88a5,5,0,0,0,5,5H94.57a5,5,0,0,0,5-5V290.24h23.2v40.68a28.85,28.85,0,0,0,28.8,28.8h208a28.85,28.85,0,0,0,28.8-28.8V300.6h24v45.63a5,5,0,0,0,5,5h31.48a5,5,0,0,0,5-5V244.92A5,5,0,0,0,448.91,239.89Zm-359.36,91H68.11V239.59H89.55ZM189.87,117V95.59h91.27V117Zm188.46,213.9a18.77,18.77,0,0,1-18.75,18.75h-208a18.77,18.77,0,0,1-18.75-18.75V177.7A18.77,18.77,0,0,1,151.59,159H306.46a18.77,18.77,0,0,1,18.75,18.75v64a5,5,0,0,0,5,5h29.35a18.76,18.76,0,0,1,18.75,18.74Zm65.56,10.28H422.45V249.94h21.44Z"/><path d="M341.22,143.66a5,5,0,0,0,3.55-1.47l58.59-58.58h45.55a5,5,0,0,0,0-10H401.28A5,5,0,0,0,397.73,75l-60.06,60.06a5,5,0,0,0,3.55,8.57Z"/><path d="M448.91,93.87H422.85a5,5,0,0,0,0,10h26.06a5,5,0,0,0,0-10Z"/><path d="M448.91,115.53h-13a5,5,0,1,0,0,10h13a5,5,0,0,0,0-10Z"/><path d="M167.23,369.8l-58.59,58.59H63.09a5,5,0,0,0,0,10.05h47.63a5,5,0,0,0,3.55-1.47l60.06-60.06a5,5,0,0,0-7.1-7.11Z"/><path d="M63.09,418.13H89.15a5,5,0,0,0,0-10.05H63.09a5,5,0,0,0,0,10.05Z"/><path d="M63.09,396.46h13a5,5,0,1,0,0-10h-13a5,5,0,0,0,0,10Z"/></svg>